<svg xmlns="http://www.w3.org/2000/svg" viewBox="0 0 175.7 62.4" enable-background="new 0 0 175.7 62.4"><path class="logo-path" d="M28.4 30.9v1c0 .3 0 .6-.1 1h-22.5c0 1.2.3 2.3.8 3.4s1.2 2 2 2.7 1.8 1.4 2.9 1.8c1.1.4 2.3.7 3.5.7 1.9 0 3.6-.4 5-1.3 1.4-.8 2.5-1.9 3.3-3.1l4 3.2c-1.5 2-3.3 3.5-5.4 4.5-2.1 1-4.4 1.4-6.9 1.4-2.2 0-4.2-.4-6-1.1-1.8-.7-3.4-1.7-4.7-3-1.3-1.3-2.4-2.9-3.1-4.7-.8-1.9-1.2-4-1.2-6.2s.4-4.2 1.1-6.1 1.8-3.5 3.1-4.8 2.9-2.3 4.7-3.1c1.8-.7 3.7-1.1 5.8-1.1 2.1 0 4 .3 5.7 1 1.7.7 3.1 1.7 4.3 2.9 1.2 1.3 2.1 2.8 2.7 4.6.7 2 1 4 1 6.3zm-5.7-2.3c0-1.1-.2-2.2-.6-3.1-.3-1-.8-1.8-1.5-2.5s-1.5-1.3-2.5-1.7c-1-.4-2.1-.6-3.4-.6-1.2 0-2.3.2-3.4.6-1.1.4-2 1-2.8 1.7-.8.7-1.4 1.6-1.9 2.5-.5 1-.8 2-.9 3.1h17zM36.9 45.4h-5.6v-45.4h5.6v45.4zM58.5 24.1c-.6-1-1.5-1.9-2.7-2.5-1.2-.7-2.5-1-3.9-1-.6 0-1.3.1-1.9.2-.6.1-1.2.4-1.7.7-.5.3-.9.7-1.2 1.1-.3.5-.5 1-.5 1.7 0 1.2.5 2.1 1.6 2.7 1.1.6 2.7 1.1 4.9 1.6 1.4.3 2.6.7 3.8 1.1 1.2.4 2.2 1 3 1.7.9.7 1.5 1.5 2 2.4.5.9.7 2 .7 3.2 0 1.7-.3 3.1-1 4.3-.6 1.2-1.5 2.1-2.5 2.9-1.1.7-2.3 1.3-3.6 1.6-1.4.3-2.8.5-4.2.5-2.2 0-4.3-.4-6.3-1.3-2.1-.8-3.8-2.1-5.1-3.8l4-3.4c.8 1.1 1.8 2.1 3.1 2.8 1.3.8 2.8 1.1 4.4 1.1.7 0 1.4-.1 2.1-.2.7-.1 1.3-.4 1.8-.7.5-.3 1-.7 1.3-1.3.3-.5.5-1.2.5-2 0-1.3-.6-2.3-1.9-2.9-1.3-.6-3.1-1.2-5.6-1.8-1-.2-1.9-.5-2.9-.9-1-.3-1.9-.8-2.7-1.4-.8-.6-1.5-1.4-1.9-2.2-.5-.9-.8-2-.8-3.3 0-1.5.3-2.8.9-3.9.6-1.1 1.4-2 2.4-2.7 1-.7 2.1-1.2 3.4-1.6 1.3-.3 2.6-.5 4-.5 2 0 4 .4 5.9 1.2 1.9.8 3.4 2 4.4 3.5l-3.8 3.1zM92.8 30.9v1c0 .3 0 .6-.1 1h-22.6c0 1.2.3 2.3.8 3.4s1.2 2 2 2.7 1.8 1.4 2.9 1.8c1.1.4 2.3.7 3.5.7 1.9 0 3.6-.4 5-1.3 1.4-.8 2.5-1.9 3.3-3.1l4 3.2c-1.5 2-3.3 3.5-5.4 4.5-2.1 1-4.4 1.4-6.9 1.4-2.2 0-4.2-.4-6-1.1-1.8-.7-3.4-1.7-4.7-3-1.3-1.3-2.4-2.9-3.1-4.7-.8-1.8-1.1-3.9-1.1-6.1 0-2.2.4-4.2 1.1-6.1s1.8-3.5 3.1-4.8 2.9-2.3 4.7-3.1c1.8-.7 3.7-1.1 5.8-1.1 2.1 0 4 .3 5.7 1 1.7.7 3.1 1.7 4.3 2.9 1.2 1.3 2.1 2.8 2.7 4.6.6 1.9 1 3.9 1 6.2zm-5.8-2.3c0-1.1-.2-2.2-.6-3.1-.3-1-.8-1.8-1.5-2.5s-1.5-1.3-2.5-1.7c-1-.4-2.1-.6-3.4-.6-1.2 0-2.3.2-3.4.6-1.1.4-2 1-2.8 1.7-.8.7-1.4 1.6-1.9 2.5-.5 1-.8 2-.9 3.1h17zM109.6 1.5c1.6.9 2.6 2 2.6 6.1 0 8.3-4.6 23.8-11.8 23.1-.5 3.1-.8 5.8-.8 7.6 0 2.6.7 3.8 2.4 3.8 3.2 0 6.9-4.7 9-8.9.3-.7.7-.9 1-.9.2 0 .4.2.4.7 0 .2-.1.5-.2.8-1.9 4.6-7 12.1-12.2 12.1-4.1 0-5.5-3.7-5.5-9.1 0-3.4.5-7.6 1.4-11.9 2.2-12 5.8-24.7 11.2-24.7 1.2.1 2.1.7 2.5 1.3zm-8.9 27.7c4.9-4 8.2-16.9 8.2-23.9 0-1-.1-1.9-.2-2.6-2.1.7-6.2 15.5-8 26.5zM116.6 21.4c.8-3.7 3.4-6.7 7.4-6.7 4.8 0 6.8 4.1 6.8 9.3 0 2.6-.5 5.4-1.3 8.2 5.7-2.3 5.7-11.2 9.5-10.8 1.1-3.9 3.7-7.1 7.5-7.1 4.8 0 6.7 4.1 6.7 9.4 0 4.2-1.2 9.1-3.2 13.2 2.2-.1 4.5-1.1 5.8-3.8.3-.6.6-.8.8-.8.3 0 .5.3.5.7 0 2.4-3.4 5.6-8 5.6-2.4 4.3-5.6 7.4-9.1 7.4-4.8 0-6.8-4.9-6.8-10.4 0-1.6.1-3.2.4-4.8-1.3 1.6-2.9 2.8-4.9 3.2-2.3 6.2-6.5 11.6-11.1 11.6-4.8 0-6.8-4.5-6.8-10 0-4.4 1.1-8.8 2.7-12.1.6-.9 1.5-2.1 3.1-2.1zm7.4 12.7c-3.3-.7-5.4-2.7-6.6-5.2-.8 2.8-1.3 5.8-1.3 8.4 0 3.3.8 5.8 2.8 5.8 2.6 0 4.3-6.3 5.1-9zm-4.5-11.1c.1.2.2.3.2.4 0 .2-.4 1.1-.4 1.8 0 3.1 1.3 6.1 5 7.1.8-3.4 1.3-7.1 1.3-10 0-3.1-.5-5.3-2-5.4-1.7.1-3.5 2.8-4.1 6.1zm25.6 15.2c-3.2-1-5.2-3.5-6.1-6.5-.4 2.1-.7 4.3-.7 6.2 0 3.4.8 5.9 2.8 5.9 2.2-.1 3.3-3.6 4-5.6zm-3.3-11.1c0 3.7 1.1 7.3 4 8.9 1.3-4.5 2.2-10 2.2-14 0-3.1-.5-5.3-1.9-5.4-2.1.1-4.3 5.2-4.3 10.5zM153.4 62.4c-1.3 0-2.6-1-2.6-2.9 0-2 6.1-32.3 8.4-40.7.4-1.5 1.6-2.2 2.8-2.2 1.3 0 2.6.8 2.6 2.3 0 .2 0 .4-.5 2.4 1.7-3.8 3.9-6.4 6.5-6.4 3.7 0 5.2 3.5 5.2 7.9 0 9.1-6.4 23-13.4 23-1.6 0-2.8-.7-3.5-1.6-1.6 7.4-2.9 14-3.1 16.1-.3 1.4-1.4 2.1-2.4 2.1zm5.8-20.5c.5.4 1.3.9 2 .9 4.2 0 8.6-13.6 8.6-20.2 0-2.2-.5-3.4-1.6-3.4-2.3 0-5 5.9-7 13.6-.6 2.8-1.3 6-2 9.1z"/></svg>